<svg t="1713941532308" viewBox="0 0 1102 1024" version="1.1" xmlns="http://www.w3.org/2000/svg" p-id="5271" xmlns:xlink="http://www.w3.org/1999/xlink" width="215.234375" height="200">
  <path d="M119.28615406 208.19692344a73.84615406 73.84615406 0 1 1 0-147.69230813 73.84615406 73.84615406 0 0 1 0 147.69230813z m0 369.23076844a73.84615406 73.84615406 0 1 1 0-147.69230719 73.84615406 73.84615406 0 0 1 0 147.69230719z m0 369.23076937a73.84615406 73.84615406 0 1 1 0-147.69230719 73.84615406 73.84615406 0 0 1 0 147.69230719zM290.97846125 183.68v-110.76923063h738.46153875v110.76923063h-738.46153875z m0.4430775 372.40615406v-110.76923062h738.7569225v110.76923062H291.42153875z m-3.10153875 372.33230719v-110.76923063h739.93846125v110.76923063H288.24615406z" fill="#333333" p-id="5272"></path>
</svg>
