<svg t="1714035997337" class="icon" viewBox="0 0 1024 1024" version="1.1" xmlns="http://www.w3.org/2000/svg" p-id="9109" width="200" height="200">
  <path d="M682.666667 640a42.666667 42.666667 0 0 1-42.666667 42.666667h-85.333333v85.333333a42.666667 42.666667 0 0 1-85.333334 0v-85.333333h-85.333333a42.666667 42.666667 0 0 1 0-85.333334h85.333333v-85.333333a42.666667 42.666667 0 0 1 85.333334 0v85.333333h85.333333a42.666667 42.666667 0 0 1 42.666667 42.666667z m256-341.333333v597.333333c0 70.698667-57.301333 128-128 128H213.333333c-70.698667 0-128-57.301333-128-128V128C85.333333 57.301333 142.634667 0 213.333333 0h426.666667l298.666667 298.666667z m-298.666667 0h178.005333L640 120.672V298.666667z m213.333333 597.333333V384H554.666667V85.333333H213.333333c-15.370667 0-25.504 7.829333-30.165333 12.501334S170.666667 112.629333 170.666667 128v768c0 15.370667 7.829333 25.504 12.501333 30.165333S197.962667 938.666667 213.333333 938.666667h597.333334c15.370667 0 25.504-7.829333 30.165333-12.501334S853.333333 911.370667 853.333333 896z" p-id="9110" fill="#2c2c2c"></path>
</svg>
